<svg width="40" height="40" viewBox="0 0 40 40" fill="none" xmlns="http://www.w3.org/2000/svg">
<path d="M29.4332 13.3251L19.9998 3.90845L10.5665 13.3251C7.9665 15.9251 6.6665 19.3918 6.6665 22.7251C6.6665 26.0585 7.9665 29.5751 10.5665 32.1751C13.1665 34.7751 16.5832 36.0918 19.9998 36.0918C23.4165 36.0918 26.8332 34.7751 29.4332 32.1751C32.0332 29.5751 33.3332 26.0585 33.3332 22.7251C33.3332 19.3918 32.0332 15.9251 29.4332 13.3251ZM9.99984 23.3251C10.0165 19.9918 11.0332 17.8751 12.9332 15.9918L19.9998 8.77511L27.0665 16.0751C28.9665 17.9418 29.9832 19.9918 29.9998 23.3251H9.99984Z" fill="black"/>
</svg>
